#!OML:ASF H:\Punching\Project 1\Capture day 1\Session 1\female.ASF
:FULLY-SPECIFIED
:DEGREES
1
root 0.390853 15.754 -9.47411 12.1947 -6.14334 -0.659746
lowerback -6.48525 -0.612219 0.338599
upperback -6.82207 -0.839398 0.301086
thorax -3.41628 -0.435249 0.0934019
lowerneck -14.4655 1.35962 7.04362
upperneck 40.0749 0.874317 -3.19
head 17.1044 0.951286 -2.56604
rclavicle -2.75286e-014 -1.0312e-014
rhumerus -36.9388 1.02461 -82.8081
rradius 27.0434
rwrist 10.1193
rhand -10.9577 -7.1541
rfingers 7.12502
rthumb 15.0613 -36.5862
lclavicle -2.75286e-014 -1.0312e-014
lhumerus -43.6172 7.02096 79.449
lradius 31.2024
lwrist -21.909
lhand -4.43918 12.4932
lfingers 7.12502
lthumb 21.3322 41.339
rfemur -18.7535 9.31914 17.4407
rtibia 24.8893
rfoot -17.3909 -19.3451
rtoes -7.50221
lfemur -16.8888 -9.23972 -20.5531
ltibia 22.696
lfoot -16.9183 18.2546
ltoes 5.59933
2
root 0.39938 15.7527 -9.46968 12.2399 -6.16906 -0.643832
lowerback -6.51069 -0.617925 0.342085
upperback -6.76211 -0.847676 0.28561
thorax -3.33948 -0.439783 0.0743495
lowerneck -14.5695 1.33246 7.03764
upperneck 40.0462 0.818198 -3.17682
head 17.1107 0.927801 -2.56907
rclavicle -5.26624e-015 -7.20594e-016
rhumerus -36.8035 1.0041 -82.81
rradius 27.1108
rwrist 10.0265
rhand -10.9585 -7.0613
rfingers 7.12502
rthumb 15.0604 -36.4935
lclavicle -5.26624e-015 -7.20594e-016
lhumerus -43.5143 6.9883 79.4827
lradius 31.2377
lwrist -21.8713
lhand -4.41038 12.4886
lfingers 7.12502
lthumb 21.3598 41.3313
rfemur -18.7731 9.21384 17.3682
rtibia 24.8964
rfoot -17.7973 -19.2416
rtoes -8.29168
lfemur -16.9375 -9.14095 -20.616
ltibia 22.7236
lfoot -16.9524 18.1902
ltoes 5.65131
3
root 0.413712 15.7522 -9.46426 12.2932 -6.1979 -0.594094
lowerback -6.37584 -0.650551 0.344926
upperback -6.91117 -0.89102 0.278615
thorax -3.57133 -0.462388 0.0672467
lowerneck -14.2123 1.3289 7.05798
upperneck 40.0208 0.831544 -3.17247
head 17.006 0.936053 -2.56526
rclavicle 1.99328e-014 -1.59773e-014
rhumerus -37.1814 1.18371 -82.8603
rradius 27.4148
rwrist 9.95066
rhand -10.9918 -7.03047
rfingers 7.12502
rthumb 15.0284 -36.4651
lclavicle 1.99328e-014 -1.59773e-014
lhumerus -43.8945 6.85885 79.5336
lradius 31.4562
lwrist -21.7501
lhand -4.35761 12.6069
lfingers 7.12502
lthumb 21.4105 41.4439
rfemur -18.7937 8.79885 17.2597
rtibia 24.8846
rfoot -18.1836 -18.8619
rtoes -9.30426
lfemur -17.0086 -9.11825 -20.7311
ltibia 22.7975
lfoot -17.0565 18.1557
ltoes 5.96836
4
root 0.419005 15.7504 -9.4609 12.3469 -6.26958 -0.641824
lowerback -6.40659 -0.618851 0.333215
upperback -6.77627 -0.84791 0.30405
thorax -3.41179 -0.439224 0.0997762
lowerneck -14.5702 1.28576 6.97171
upperneck 40.0155 0.746565 -3.13265
head 17.0869 0.892741 -2.54933
rclavicle -2.47394e-014 -6.78353e-015
rhumerus -36.8617 1.2006 -82.8304
rradius 27.3879
rwrist 9.71339
rhand -11.1131 -6.9458
rfingers 7.12502
rthumb 14.9115 -36.3891
lclavicle -2.47394e-014 -6.78353e-015
lhumerus -43.5462 6.9053 79.5966
lradius 31.2994
lwrist -21.8578
lhand -4.34584 12.4777
lfingers 7.12502
lthumb 21.4218 41.3134
rfemur -18.8201 8.98426 17.2339
rtibia 24.872
rfoot -18.6348 -19.0218
rtoes -10.2067
lfemur -17.0905 -9.042 -20.7032
ltibia 22.8744
lfoot -17.122 18.1534
ltoes 6.10399
5
root 0.428486 15.7489 -9.45641 12.3967 -6.32199 -0.651814
lowerback -6.38176 -0.615239 0.339575
upperback -6.7474 -0.843098 0.313398
thorax -3.39523 -0.436807 0.106073
lowerneck -14.6304 1.26181 6.93773
upperneck 39.9863 0.70653 -3.11322
head 17.0826 0.872602 -2.54125
rclavicle -1.53716e-014 -3.15571e-015
rhumerus -36.8101 1.24882 -82.8194
rradius 27.4851
rwrist 9.5682
rhand -11.178 -6.87787
rfingers 7.12502
rthumb 14.849 -36.3258
lclavicle -1.53716e-014 -3.15571e-015
lhumerus -43.4904 6.87475 79.6558
lradius 31.3105
lwrist -21.8568
lhand -4.32979 12.4582
lfingers 7.12502
lthumb 21.4372 41.2921
rfemur -18.8359 8.90922 17.1772
rtibia 24.8584
rfoot -19.0626 -18.958
rtoes -11.1297
lfemur -17.1681 -8.97528 -20.7358
ltibia 22.9603
lfoot -17.2072 18.1283
ltoes 6.26325
6
root 0.438362 15.747 -9.4517 12.4429 -6.37978 -0.668034
lowerback -6.34994 -0.60948 0.351849
upperback -6.71706 -0.835553 0.324806
thorax -3.38108 -0.43321 0.111347
lowerneck -14.6879 1.23931 6.91062
upperneck 39.9486 0.670179 -3.10189
head 17.0731 0.853719 -2.53714
rclavicle -2.56013e-014 1.15171e-014
rhumerus -36.7595 1.27931 -82.7948
rradius 27.5768
rwrist 9.44029
rhand -11.2462 -6.79643
rfingers 7.12502
rthumb 14.7833 -36.2492
lclavicle -2.56013e-014 1.15171e-014
lhumerus -43.4357 6.83866 79.7205
lradius 31.3252
lwrist -21.853
lhand -4.32586 12.4376
lfingers 7.12502
lthumb 21.441 41.2711
rfemur -18.8416 8.83562 17.1257
rtibia 24.8359
rfoot -19.4918 -18.903
rtoes -12.0461
lfemur -17.2536 -8.90532 -20.7645
ltibia 23.0755
lfoot -17.3118 18.1045
ltoes 6.40507
7
root 0.448608 15.7448 -9.44665 12.4813 -6.44402 -0.689879
lowerback -6.31238 -0.601606 0.368728
upperback -6.67997 -0.825274 0.338234
thorax -3.36308 -0.428362 0.11622
lowerneck -14.7496 1.2188 6.88917
upperneck 39.902 0.637343 -3.09671
head 17.0602 0.836093 -2.53597
rclavicle 2.37765e-014 2.21396e-014
rhumerus -36.7016 1.28993 -82.7537
rradius 27.6606
rwrist 9.32584
rhand -11.3094 -6.70823
rfingers 7.12502
rthumb 14.7224 -36.1654
lclavicle 2.37765e-014 2.21396e-014
lhumerus -43.3761 6.80181 79.7901
lradius 31.3447
lwrist -21.8451
lhand -4.3288 12.4183
lfingers 7.12502
lthumb 21.4382 41.2521
rfemur -18.8417 8.76168 17.0801
rtibia 24.8235
rfoot -19.9301 -18.8551
rtoes -12.929
lfemur -17.3248 -8.82714 -20.7915
ltibia 23.1846
lfoot -17.4164 18.0794
ltoes 6.51411
8
root 0.459781 15.7421 -9.44107 12.5105 -6.51351 -0.709622
lowerback -6.25756 -0.594625 0.387852
upperback -6.65006 -0.81618 0.350788
thorax -3.36228 -0.424246 0.119167
lowerneck -14.7857 1.2027 6.88117
upperneck 39.8473 0.611944 -3.0989
head 17.0369 0.822368 -2.53879
rclavicle -1.75567e-014 1.84e-014
rhumerus -36.671 1.28425 -82.697
rradius 27.7522
rwrist 9.23569
rhand -11.3573 -6.5908
rfingers 7.12502
rthumb 14.6762 -36.0514
lclavicle -1.75567e-014 1.84e-014
lhumerus -43.347 6.74901 79.8677
lradius 31.3873
lwrist -21.8165
lhand -4.33517 12.4148
lfingers 7.12502
lthumb 21.4321 41.2493
rfemur -18.8342 8.65167 17.0336
rtibia 24.8198
rfoot -20.3659 -18.7783
rtoes -13.7736
lfemur -17.384 -8.74187 -20.8279
ltibia 23.2981
lfoot -17.5286 18.0497
ltoes 6.59412
